<?xml version="1.0" encoding="UTF-8"?> <svg xmlns="http://www.w3.org/2000/svg" viewBox="6043.927734375 5115.66650390625 138.951171875 35.00244140625"><path fill="#0F40FF" stroke="none" fill-opacity="1" stroke-width="1" stroke-opacity="1" id="tSvg36c1167bcc" d="M 6080.351336231884 5133.125266666668 C 6080.351336231884 5132.585666666668 6080.305836231884 5132.079366666668 6080.217936231884 5131.609466666668 C 6080.130036231884 5131.148566666668 6080.002736231884 5130.721166666668 6079.829936231884 5130.330066666668 C 6079.826936231884 5130.323966666668 6079.823836231884 5130.3148666666675 6079.820836231884 5130.308866666668 C 6079.654136231884 5129.9389666666675 6079.451036231884 5129.611566666668 6079.217536231884 5129.332666666668 C 6078.981136231884 5129.050666666668 6078.711336231884 5128.814166666668 6078.411236231884 5128.623166666668 C 6078.105036231884 5128.432166666668 6077.774636231884 5128.289766666668 6077.422936231884 5128.192666666668 C 6077.062236231884 5128.095666666668 6076.680236231884 5128.047166666668 6076.277036231884 5128.047166666668 C 6075.992136231884 5128.047166666668 6075.719236231884 5128.074466666668 6075.455536231884 5128.129066666668 C 6075.194836231884 5128.183666666668 6074.943236231884 5128.262466666668 6074.703736231884 5128.368566666668 C 6074.467236231884 5128.474666666668 6074.242936231884 5128.605066666668 6074.036836231884 5128.762666666667 C 6073.8306362318845 5128.917266666668 6073.642736231884 5129.096166666668 6073.469936231884 5129.299266666668 C 6073.297136231884 5129.505466666668 6073.142536231884 5129.735866666668 6073.006136231884 5129.996566666668 C 6072.866636231884 5130.260366666668 6072.745436231884 5130.560466666668 6072.639236231884 5130.893966666667 C 6072.636236231884 5130.903066666668 6072.633236231884 5130.909066666668 6072.630236231884 5130.918166666668 C 6072.530136231884 5131.242566666668 6072.4574362318845 5131.585166666668 6072.405836231884 5131.948966666668 C 6072.354336231884 5132.327966666668 6072.327036231884 5132.7280666666675 6072.327036231884 5133.143466666668 C 6072.327036231884 5133.5648666666675 6072.354336231884 5133.968066666668 6072.408936231884 5134.3530666666675 C 6072.463436231884 5134.729066666668 6072.542236231884 5135.086766666668 6072.645336231884 5135.423266666668 C 6072.751436231884 5135.759766666668 6072.878736231884 5136.065966666668 6073.021236231884 5136.335866666668 C 6073.163736231884 5136.602566666668 6073.327436231884 5136.845166666668 6073.512336231884 5137.057366666668 C 6073.697236231884 5137.269566666668 6073.894336231884 5137.454466666668 6074.103436231884 5137.612166666668 C 6074.309636231884 5137.7667666666675 6074.533936231884 5137.8971666666675 6074.767336231884 5138.000166666668 C 6075.003836231884 5138.106366666668 6075.252436231884 5138.182066666668 6075.513136231884 5138.233666666668 C 6075.779836231884 5138.288266666668 6076.055736231884 5138.312466666668 6076.337636231884 5138.312466666668 C 6076.704436231884 5138.312466666668 6077.056136231884 5138.263966666668 6077.389636231884 5138.173066666668 C 6077.723036231884 5138.082066666668 6078.041336231884 5137.9425666666675 6078.347536231884 5137.760666666668 C 6078.644636231884 5137.581866666668 6078.914436231884 5137.354466666668 6079.150836231884 5137.075566666668 C 6079.393436231884 5136.7905666666675 6079.608636231884 5136.454066666668 6079.793536231884 5136.065966666668 C 6079.978436231884 5135.677966666668 6080.114836231884 5135.241366666668 6080.205836231884 5134.756266666668C 6080.305836231884 5134.256066666668 6080.351336231884 5133.713366666668 6080.351336231884 5133.125266666668Z M 6076.267936231884 5124.721436666668 C 6077.110736231884 5124.718396666668 6077.892836231884 5124.803286666668 6078.611236231884 5124.973066666668 C 6079.338836231884 5125.142836666668 6080.011836231884 5125.400526666668 6080.624136231884 5125.749176666668 C 6081.239536231884 5126.0947866666675 6081.779136231884 5126.516186666668 6082.249036231884 5127.010366666668 C 6082.715836231884 5127.504566666668 6083.106936231884 5128.071466666668 6083.425236231884 5128.711166666668 C 6083.740536231884 5129.344766666668 6083.973936231884 5130.032966666668 6084.131536231884 5130.772666666668 C 6084.286136231884 5131.506366666668 6084.365036231884 5132.294566666668 6084.368036231884 5133.140466666668 C 6084.368036231884 5133.767966666668 6084.328636231884 5134.362166666668 6084.246736231884 5134.923066666668 C 6084.161936231884 5135.492966666668 6084.037636231884 5136.035666666668 6083.867836231884 5136.548066666668 C 6083.865802898551 5136.555133333334 6083.863769565217 5136.562200000001 6083.861736231884 5136.569266666668 C 6083.692036231884 5137.078566666668 6083.482836231884 5137.557566666668 6083.228236231884 5138.0032666666675 C 6082.970536231884 5138.457966666668 6082.667336231884 5138.876366666668 6082.324836231884 5139.258366666668 C 6081.979236231884 5139.640366666667 6081.594236231884 5139.982966666668 6081.166836231884 5140.276966666668 C 6080.742436231884 5140.571066666668 6080.278536231884 5140.819666666668 6079.778436231884 5141.025866666668 C 6079.772336231884 5141.028866666667 6079.763236231884 5141.031866666668 6079.757136231884 5141.034966666668 C 6079.260036231884 5141.231966666668 6078.732536231884 5141.383566666668 6078.171736231884 5141.483666666668 C 6077.610936231884 5141.583666666668 6077.010636231884 5141.635166666668 6076.368036231884 5141.635166666668 C 6075.728336231884 5141.635166666668 6075.125136231884 5141.586666666668 6074.561236231884 5141.486666666668 C 6073.994336231884 5141.386566666668 6073.457736231884 5141.231966666668 6072.945436231884 5141.022766666668 C 6072.433136231884 5140.8166666666675 6071.966336231884 5140.568066666668 6071.541936231884 5140.273966666668 C 6071.111436231884 5139.9798666666675 6070.726436231884 5139.640366666667 6070.380836231884 5139.2613666666675 C 6070.038236231884 5138.882466666668 6069.738136231884 5138.467066666668 6069.477436231884 5138.009266666668 C 6069.219836231884 5137.554566666668 6069.001536231884 5137.063466666668 6068.828736231884 5136.535866666668 C 6068.655936231884 5136.014466666667 6068.525536231884 5135.468766666668 6068.440736231884 5134.904866666668 C 6068.355836231884 5134.347066666668 6068.313336231884 5133.761966666668 6068.310336231884 5133.149566666668 C 6068.310336231884 5132.524966666668 6068.352836231884 5131.930766666668 6068.437636231884 5131.369966666668 C 6068.525536231884 5130.799966666668 6068.658936231884 5130.251266666668 6068.837836231884 5129.726766666668 C 6069.016636231884 5129.205266666668 6069.237936231884 5128.720266666668 6069.498636231884 5128.268466666668 C 6069.762436231884 5127.816766666668 6070.065536231884 5127.404466666668 6070.411136231884 5127.0315666666675 C 6070.753736231884 5126.658676666668 6071.138736231884 5126.328226666667 6071.563136231884 5126.040216666668 C 6071.984536231884 5125.755236666668 6072.439236231884 5125.512706666668 6072.933336231884 5125.318676666668 C 6073.427436231884 5125.118586666668 6073.951936231884 5124.973066666668 6074.506636231884 5124.873016666668C 6075.055336231884 5124.7699366666675 6075.643436231884 5124.721436666668 6076.267936231884 5124.721436666668Z"></path><path fill="#0F40FF" stroke="none" fill-opacity="1" stroke-width="1" stroke-opacity="1" id="tSvg7d095f8fb5" d="M 6057.311036231884 5130.569966666668 C 6056.598669565217 5127.951603333335 6055.886302898551 5125.333240000001 6055.173936231884 5122.714876666668 C 6054.463549565217 5125.336273333334 6053.753162898551 5127.957670000002 6053.042776231884 5130.579066666668 C 6053.039746231884 5130.588166666668 6053.036706231884 5130.597266666668 6053.033676231884 5130.606366666668 C 6052.939706231884 5130.945866666668 6052.851796231884 5131.2460666666675 6052.772976231884 5131.506766666668 C 6052.691126231884 5131.770566666668 6052.621396231884 5131.982766666668 6052.560766231884 5132.143466666668 C 6052.491046231884 5132.331366666668 6052.391006231884 5132.510266666668 6052.266716231884 5132.680066666668 C 6052.145456231884 5132.843766666668 6051.999946231884 5132.995366666668 6051.830186231884 5133.1408666666675 C 6051.645266231884 5133.298466666668 6051.430036231884 5133.413666666668 6051.184486231884 5133.492566666668 C 6050.951066231884 5133.565266666668 6050.693386231884 5133.604666666668 6050.411456231884 5133.604666666668 C 6050.184096231884 5133.604666666668 6049.977956231884 5133.583466666668 6049.786976231884 5133.541066666668 C 6049.586906231884 5133.495566666668 6049.408046231884 5133.428866666668 6049.247376231884 5133.334866666668 C 6049.086706231884 5133.243966666668 6048.944226231884 5133.134766666668 6048.813876231884 5133.004466666668 C 6048.686556231884 5132.877066666668 6048.574396231884 5132.731566666668 6048.480416231884 5132.570866666668 C 6048.392506231884 5132.419266666668 6048.310656231884 5132.255566666668 6048.240926231884 5132.082766666668 C 6048.171206231884 5131.909966666668 6048.110576231884 5131.725066666668 6048.056006231884 5131.524966666668 C 6048.054996231884 5131.521933333334 6048.053986231884 5131.518900000001 6048.052976231884 5131.5158666666675 C 6048.004476231884 5131.343066666668 6047.955976231884 5131.170266666668 6047.910496231884 5130.997466666668 C 6047.889276231884 5130.921666666668 6047.837746231884 5130.724566666668 6047.783176231884 5130.509366666668 C 6047.783176231884 5130.508333333334 6047.783176231884 5130.507300000001 6047.783176231884 5130.506266666668 C 6046.914156231884 5127.015800000001 6046.045136231884 5123.525333333335 6045.176116231884 5120.034866666668 C 6045.175105898551 5120.027793333335 6045.174095565218 5120.020720000001 6045.173085231884 5120.013646666668 C 6045.091235231884 5119.7013866666675 6045.033637231884 5119.428536666668 6044.994228531884 5119.201156666668 C 6044.948756531884 5118.952556666668 6044.927536231884 5118.734276666668 6044.927536231884 5118.546316666668 C 6044.927536231884 5118.2916466666675 6044.973008231884 5118.052146666668 6045.063952231884 5117.833866666668 C 6045.154896231884 5117.606489666668 6045.291312231884 5117.4063976666675 6045.473200231884 5117.230560666668 C 6045.482294231884 5117.221465666667 6045.491389231884 5117.215401666668 6045.500483231884 5117.206306666668 C 6045.676308231884 5117.039563666668 6045.870322231884 5116.915264666668 6046.085556231884 5116.830377666668 C 6046.306856231884 5116.742458866668 6046.549366231884 5116.700015166668 6046.813106231884 5116.696983566668 C 6047.164756231884 5116.696983566668 6047.461846231884 5116.754585566668 6047.710426231884 5116.872821666668 C 6047.983256231884 5117.003183666668 6048.192426231884 5117.200243666668 6048.334906231884 5117.460968666668 C 6048.335916231884 5117.4619790000015 6048.336926231884 5117.462989333335 6048.337936231884 5117.463999666668 C 6048.447066231884 5117.670156666668 6048.550136231884 5117.918756666668 6048.644116231884 5118.212826666668 C 6048.735056231884 5118.491736666668 6048.819936231884 5118.813096666668 6048.895726231884 5119.1769066666675 C 6048.896736231884 5119.181956666668 6048.897746231884 5119.187006666668 6048.898756231884 5119.192056666668 C 6049.459579565218 5121.667936666668 6050.020402898551 5124.143816666668 6050.581226231884 5126.619696666668 C 6051.192569565217 5124.323696666668 6051.803912898551 5122.027696666668 6052.415256231884 5119.731696666668 C 6052.416269565218 5119.726646666668 6052.417282898551 5119.721596666668 6052.418296231884 5119.716546666667 C 6052.500136231884 5119.3951866666675 6052.581986231884 5119.110206666668 6052.657776231884 5118.855546666668 C 6052.739626231884 5118.585726666668 6052.815416231884 5118.3644066666675 6052.882106231884 5118.197666666668 C 6052.885136231884 5118.191606666668 6052.888166231884 5118.182506666668 6052.891196231884 5118.176446666668 C 6052.970016231884 5117.979386666668 6053.073086231884 5117.797486666668 6053.200406231884 5117.627710666668 C 6053.327736231884 5117.454904666668 6053.485366231884 5117.294225666667 6053.664226231884 5117.148704666668 C 6053.667256231884 5117.145673000001 6053.670286231884 5117.142641333335 6053.673316231884 5117.139609666668 C 6053.867336231884 5116.981961666668 6054.088626231884 5116.866757666668 6054.340246231884 5116.790965666668 C 6054.582756231884 5116.7182053666675 6054.855586231884 5116.681825066667 6055.161736231884 5116.681825066667 C 6055.470936231884 5116.681825066667 6055.746836231884 5116.7182053666675 6055.992436231884 5116.793997666668 C 6056.256136231884 5116.875852666668 6056.483536231884 5117.000151666668 6056.674436231884 5117.166894666668 C 6056.847236231884 5117.315447666668 6056.992736231884 5117.473094666668 6057.111036231884 5117.636806666668 C 6057.232236231884 5117.806576666668 6057.329236231884 5117.9854466666675 6057.402036231884 5118.176446666668 C 6057.462636231884 5118.337126666668 6057.532336231884 5118.549346666668 6057.611236231884 5118.810066666668 C 6057.686936231884 5119.061696666668 6057.774936231884 5119.364866666668 6057.871936231884 5119.716546666667 C 6058.499436231884 5122.014563333335 6059.126936231884 5124.312580000002 6059.754436231884 5126.610596666668 C 6060.307169565217 5124.124613333334 6060.859902898551 5121.638630000001 6061.412636231884 5119.152646666668 C 6061.464236231884 5118.907086666668 6061.509636231884 5118.691836666668 6061.555136231884 5118.506896666668 C 6061.603636231884 5118.309836666668 6061.652136231884 5118.140066666668 6061.700636231884 5117.991516666668 C 6061.701636231884 5117.988483333334 6061.702636231884 5117.985450000001 6061.703636231884 5117.982416666668 C 6061.758236231884 5117.818706666668 6061.834036231884 5117.661059666668 6061.924936231884 5117.515538666667 C 6062.018936231884 5117.370017666668 6062.128036231884 5117.230560666668 6062.258436231884 5117.103229666668 C 6062.413036231884 5116.951644666668 6062.594936231884 5116.8394726666675 6062.813236231884 5116.766712666667 C 6063.013236231884 5116.700015166668 6063.237636231884 5116.666666666668 6063.492236231884 5116.666666666668 C 6063.749936231884 5116.666666666668 6063.989436231884 5116.709110266668 6064.210736231884 5116.793997666668 C 6064.435036231884 5116.881916666668 6064.638136231884 5117.012278666668 6064.820036231884 5117.1850846666675 C 6065.004936231884 5117.360922666668 6065.147436231884 5117.561013666668 6065.241436231884 5117.782326666668 C 6065.244436231884 5117.791426666668 6065.247436231884 5117.797486666668 6065.250536231884 5117.806576666668 C 6065.338436231884 5118.021826666668 6065.380836231884 5118.252236666668 6065.380836231884 5118.503866666668 C 6065.380836231884 5118.673646666668 6065.359636231884 5118.885856666668 6065.320236231884 5119.140526666668 C 6065.280836231884 5119.380026666668 6065.220136231884 5119.665006666668 6065.141336231884 5119.992426666668 C 6064.284436231884 5123.487973333335 6063.427536231884 5126.983520000002 6062.570636231884 5130.479066666668 C 6062.482736231884 5130.836766666668 6062.400936231884 5131.142966666668 6062.328136231884 5131.400666666668 C 6062.252336231884 5131.667466666668 6062.182636231884 5131.8917666666675 6062.119036231884 5132.070666666668 C 6062.049236231884 5132.270766666667 6061.955336231884 5132.4587666666675 6061.834036231884 5132.631566666668 C 6061.715836231884 5132.801266666668 6061.576336231884 5132.958966666668 6061.412636231884 5133.104466666668 C 6061.227736231884 5133.271166666668 6061.009436231884 5133.392466666668 6060.754836231884 5133.474366666668 C 6060.521436231884 5133.547066666668 6060.251636231884 5133.586466666668 6059.951536231884 5133.586466666668 C 6059.669536231884 5133.586466666668 6059.411936231884 5133.5531666666675 6059.181536231884 5133.480366666668 C 6058.935936231884 5133.404566666668 6058.720736231884 5133.289366666668 6058.535836231884 5133.131766666668 C 6058.366036231884 5132.992266666668 6058.220536231884 5132.840666666668 6058.099236231884 5132.676966666668 C 6057.974936231884 5132.510266666668 6057.874936231884 5132.331366666668 6057.805236231884 5132.146466666668 C 6057.804202898551 5132.142433333334 6057.803169565217 5132.138400000002 6057.802136231884 5132.134366666668 C 6057.741536231884 5131.976666666668 6057.671836231884 5131.767466666668 6057.593036231884 5131.512866666668 C 6057.505136231884 5131.227866666668 6057.414136231884 5130.918666666668 6057.314136231884 5130.5729666666675C 6057.313102898551 5130.571966666668 6057.312069565217 5130.570966666668 6057.311036231884 5130.569966666668Z"></path><path fill="#0F40FF" stroke="none" fill-opacity="1" stroke-width="1" stroke-opacity="1" id="tSvgfb72415091" d="M 6101.924336231884 5146.629466666668 C 6101.211936231884 5144.0111000000015 6100.499536231884 5141.392733333335 6099.787136231884 5138.774366666667 C 6099.076769565218 5141.395766666667 6098.36640289855 5144.017166666667 6097.656036231884 5146.638566666667 C 6097.653036231884 5146.647666666668 6097.650036231884 5146.656766666668 6097.646936231884 5146.665866666668 C 6097.553036231884 5147.005366666668 6097.465036231884 5147.305466666668 6097.386236231884 5147.566266666668 C 6097.304436231884 5147.829966666668 6097.234636231884 5148.042166666668 6097.174036231884 5148.202866666667 C 6097.104336231884 5148.3908666666675 6097.004336231884 5148.569766666668 6096.880036231884 5148.739466666668 C 6096.758736231884 5148.903166666668 6096.613236231884 5149.054766666668 6096.443436231884 5149.200266666668 C 6096.258536231884 5149.357966666668 6096.043336231884 5149.473166666668 6095.797736231884 5149.551966666668 C 6095.564336231884 5149.624766666668 6095.306636231884 5149.664166666668 6095.024736231884 5149.664166666668 C 6094.797336231884 5149.664166666668 6094.591236231884 5149.642966666668 6094.400236231884 5149.600466666668 C 6094.200136231884 5149.555066666668 6094.021336231884 5149.488366666668 6093.860636231884 5149.394366666668 C 6093.700036231884 5149.303366666668 6093.557536231884 5149.194266666668 6093.427136231884 5149.063866666668 C 6093.299836231884 5148.936566666668 6093.187636231884 5148.791066666668 6093.093736231884 5148.630366666668 C 6093.005736231884 5148.478766666668 6092.923936231884 5148.315066666668 6092.854236231884 5148.142266666668 C 6092.784536231884 5147.969466666668 6092.723836231884 5147.784466666668 6092.669336231884 5147.584466666668 C 6092.668302898551 5147.581433333335 6092.667269565218 5147.578400000001 6092.666236231884 5147.575366666668 C 6092.617736231884 5147.402566666668 6092.569236231884 5147.229766666668 6092.523736231884 5147.056866666668 C 6092.502536231884 5146.981166666668 6092.451036231884 5146.784066666668 6092.396436231884 5146.568766666668 C 6092.396436231884 5146.567766666668 6092.396436231884 5146.566766666668 6092.396436231884 5146.5657666666675 C 6091.527436231884 5143.075300000001 6090.658436231884 5139.584833333334 6089.789436231884 5136.094366666668 C 6089.788402898551 5136.087266666668 6089.787369565217 5136.0801666666675 6089.786336231884 5136.073066666668 C 6089.704536231884 5135.760866666667 6089.646936231884 5135.4879666666675 6089.607536231884 5135.260666666668 C 6089.565036231884 5135.008966666668 6089.543836231884 5134.790666666668 6089.540836231884 5134.6057666666675 C 6089.540836231884 5134.351166666668 6089.586336231884 5134.111566666668 6089.677236231884 5133.893366666668 C 6089.771236231884 5133.668966666668 6089.907636231884 5133.468866666668 6090.086436231884 5133.293066666668 C 6090.095536231884 5133.283966666668 6090.104636231884 5133.277866666668 6090.113736231884 5133.268766666668 C 6090.289636231884 5133.102066666668 6090.483636231884 5132.977766666668 6090.698836231884 5132.892866666668 C 6090.920136231884 5132.8049666666675 6091.162636231884 5132.762466666668 6091.426436231884 5132.759466666668 C 6091.778036231884 5132.759466666668 6092.075136231884 5132.817066666668 6092.323736231884 5132.9353666666675 C 6092.596536231884 5133.065666666668 6092.805736231884 5133.262766666668 6092.948236231884 5133.523466666667 C 6092.949236231884 5133.524466666668 6092.950236231884 5133.525466666668 6092.951236231884 5133.526466666668 C 6093.060336231884 5133.732666666668 6093.163436231884 5133.981266666668 6093.257436231884 5134.275366666668 C 6093.348336231884 5134.554266666668 6093.433236231884 5134.8755666666675 6093.509036231884 5135.239366666668 C 6093.510036231884 5135.244433333334 6093.511036231884 5135.249500000001 6093.512036231884 5135.254566666668 C 6094.072869565217 5137.730433333335 6094.633702898551 5140.206300000002 6095.194536231884 5142.682166666668 C 6095.805869565217 5140.386166666668 6096.41720289855 5138.090166666668 6097.028536231884 5135.7941666666675 C 6097.029536231884 5135.789133333335 6097.030536231884 5135.784100000001 6097.031536231884 5135.779066666668 C 6097.113436231884 5135.457666666668 6097.195236231884 5135.172666666668 6097.271036231884 5134.918066666668 C 6097.352936231884 5134.648266666668 6097.428736231884 5134.426866666668 6097.495436231884 5134.260166666668 C 6097.498436231884 5134.254066666668 6097.501436231884 5134.244966666668 6097.504436231884 5134.238966666668 C 6097.5833362318845 5134.041866666668 6097.686336231884 5133.859966666668 6097.813736231884 5133.690166666668 C 6097.941036231884 5133.517366666668 6098.098636231884 5133.356766666668 6098.277536231884 5133.211166666668 C 6098.280569565218 5133.208133333334 6098.28360289855 5133.205100000001 6098.286636231884 5133.202066666668 C 6098.480636231884 5133.044466666668 6098.701936231884 5132.929266666668 6098.953536231884 5132.853466666668 C 6099.196036231884 5132.7806666666675 6099.468836231884 5132.744366666668 6099.775036231884 5132.744366666668 C 6100.084236231884 5132.744366666668 6100.360136231884 5132.7806666666675 6100.605636231884 5132.856466666668 C 6100.869436231884 5132.938366666668 6101.096736231884 5133.062666666668 6101.287736231884 5133.229366666668 C 6101.460536231884 5133.377966666668 6101.606036231884 5133.535566666668 6101.724236231884 5133.699266666667 C 6101.845536231884 5133.869066666668 6101.942536231884 5134.047966666668 6102.015336231884 5134.238966666668 C 6102.075936231884 5134.399666666668 6102.145636231884 5134.611866666668 6102.224436231884 5134.872566666668 C 6102.300236231884 5135.124166666668 6102.388136231884 5135.427366666668 6102.485136231884 5135.779066666668 C 6103.112669565217 5138.077066666668 6103.740202898551 5140.375066666668 6104.367736231884 5142.673066666668 C 6104.920469565217 5140.187100000001 6105.473202898551 5137.701133333335 6106.025936231884 5135.215166666668 C 6106.077436231884 5134.969566666668 6106.122936231884 5134.754366666668 6106.168436231884 5134.5693666666675 C 6106.216936231884 5134.372366666668 6106.265436231884 5134.202566666668 6106.313936231884 5134.053966666668 C 6106.314936231884 5134.050966666668 6106.315936231884 5134.047966666668 6106.316936231884 5134.044966666668 C 6106.371536231884 5133.881166666668 6106.447336231884 5133.7235666666675 6106.538236231884 5133.578066666668 C 6106.632236231884 5133.432566666668 6106.741336231884 5133.293066666668 6106.871736231884 5133.165766666668 C 6107.026336231884 5133.014166666668 6107.208236231884 5132.901966666668 6107.426436231884 5132.829166666668 C 6107.623536231884 5132.762466666668 6107.847836231884 5132.729166666668 6108.102536231884 5132.729166666668 C 6108.360136231884 5132.729166666668 6108.599636231884 5132.771566666668 6108.820936231884 5132.856466666668 C 6109.045236231884 5132.9443666666675 6109.248336231884 5133.0747666666675 6109.430236231884 5133.247566666668 C 6109.615236231884 5133.423466666668 6109.757636231884 5133.623466666668 6109.851636231884 5133.844866666668 C 6109.854636231884 5133.8539666666675 6109.857736231884 5133.859966666668 6109.860736231884 5133.869066666668 C 6109.948636231884 5134.084366666668 6109.991136231884 5134.314766666668 6109.994136231884 5134.566366666668 C 6109.994136231884 5134.7361666666675 6109.972936231884 5134.948366666667 6109.933536231884 5135.203066666668 C 6109.894136231884 5135.4425666666675 6109.833436231884 5135.727466666668 6109.754636231884 5136.0549666666675 C 6108.897736231884 5139.549466666668 6108.040836231884 5143.043966666668 6107.183936231884 5146.538466666668 C 6107.096036231884 5146.8962666666675 6107.014236231884 5147.2024666666675 6106.941436231884 5147.460166666668 C 6106.865636231884 5147.726866666668 6106.795936231884 5147.951266666668 6106.732236231884 5148.130166666668 C 6106.662536231884 5148.330266666668 6106.568536231884 5148.518166666668 6106.447336231884 5148.690966666668 C 6106.329036231884 5148.860766666668 6106.189636231884 5149.018366666668 6106.025936231884 5149.163966666668 C 6105.841036231884 5149.330666666668 6105.622736231884 5149.451966666667 6105.368136231884 5149.533766666668 C 6105.134736231884 5149.606566666668 6104.864836231884 5149.645966666668 6104.564736231884 5149.645966666668 C 6104.282836231884 5149.645966666668 6104.025136231884 5149.612666666668 6103.794736231884 5149.539866666668 C 6103.552236231884 5149.464066666668 6103.334036231884 5149.348866666668 6103.149036231884 5149.191266666668 C 6102.979336231884 5149.051766666668 6102.830736231884 5148.900166666668 6102.712536231884 5148.736466666668 C 6102.588236231884 5148.569766666668 6102.488236231884 5148.3908666666675 6102.418536231884 5148.205966666668 C 6102.417502898551 5148.201900000001 6102.416469565217 5148.1978333333345 6102.415436231884 5148.193766666668 C 6102.354836231884 5148.036166666668 6102.285136231884 5147.826966666667 6102.206336231884 5147.572266666668 C 6102.118336231884 5147.287366666668 6102.027436231884 5146.9780666666675 6101.927436231884 5146.632466666668C 6101.926402898551 5146.631466666668 6101.925369565217 5146.630466666668 6101.924336231884 5146.629466666668Z"></path><path fill="#0F40FF" stroke="none" fill-opacity="1" stroke-width="1" stroke-opacity="1" id="tSvg13f824dcc57" d="M 6127.345236231884 5119.925726666668 C 6125.1151028985505 5119.929770000002 6122.884969565217 5119.933813333335 6120.654836231884 5119.937856666668 C 6120.656869565218 5120.939323333335 6120.658902898551 5121.9407900000015 6120.660936231884 5122.942256666668 C 6122.704136231884 5122.938213333335 6124.747336231884 5122.934170000001 6126.790536231884 5122.930126666668 C 6127.072436231884 5122.930126666668 6127.321036231884 5122.960446666668 6127.536236231884 5123.027146666668 C 6127.772736231884 5123.096866666668 6127.972736231884 5123.206016666668 6128.139536231884 5123.357596666668 C 6128.306236231884 5123.5061466666675 6128.430536231884 5123.678956666668 6128.512336231884 5123.876016666668 C 6128.591236231884 5124.067006666668 6128.633636231884 5124.282256666668 6128.633636231884 5124.515696666668 C 6128.633636231884 5124.746106666668 6128.594236231884 5124.958326666668 6128.518436231884 5125.149326666668 C 6128.439636231884 5125.346386666668 6128.321436231884 5125.522216666668 6128.160736231884 5125.673806666668 C 6128.159736231884 5125.6748166666675 6128.158736231884 5125.6758266666675 6128.157736231884 5125.676836666667 C 6127.994036231884 5125.831446666668 6127.790936231884 5125.946656666668 6127.551436231884 5126.022446666668 C 6127.333136231884 5126.089146666668 6127.0815362318845 5126.125526666668 6126.793536231884 5126.125526666668 C 6124.751336231884 5126.129566666668 6122.709136231884 5126.133606666668 6120.666936231884 5126.137646666668 C 6120.668969565218 5127.341220000001 6120.671002898551 5128.544793333334 6120.673036231884 5129.748366666668 C 6122.984002898551 5129.743333333335 6125.294969565217 5129.738300000001 6127.605936231884 5129.733266666668 C 6127.893936231884 5129.733266666668 6128.151636231884 5129.766566666668 6128.375936231884 5129.836266666668 C 6128.624536231884 5129.912066666668 6128.833736231884 5130.027266666668 6129.003436231884 5130.181966666668 C 6129.009536231884 5130.187966666668 6129.018636231884 5130.194066666668 6129.024736231884 5130.203166666668 C 6129.188436231884 5130.354766666668 6129.309636231884 5130.530566666668 6129.391536231884 5130.730666666668 C 6129.476436231884 5130.933766666668 6129.518836231884 5131.158166666668 6129.518836231884 5131.403666666668 C 6129.518836231884 5131.643166666668 6129.476436231884 5131.861466666668 6129.391536231884 5132.064566666668 C 6129.303636231884 5132.270766666667 6129.176236231884 5132.449666666668 6129.003436231884 5132.604266666668 C 6129.001436231884 5132.605266666668 6128.999436231884 5132.606266666668 6128.997436231884 5132.607266666668 C 6128.827636231884 5132.761866666668 6128.621536231884 5132.877066666668 6128.379036231884 5132.949866666668 C 6128.154636231884 5133.019566666668 6127.897036231884 5133.052966666668 6127.605936231884 5133.055966666668 C 6124.75130289855 5133.0620333333345 6121.896669565217 5133.068100000001 6119.042036231884 5133.074166666668 C 6118.657036231884 5133.074166666668 6118.323636231884 5133.031666666668 6118.038636231884 5132.943766666668 C 6117.726436231884 5132.8467666666675 6117.471736231884 5132.701266666668 6117.271736231884 5132.498166666668 C 6117.074636231884 5132.298066666668 6116.926136231884 5132.043366666668 6116.829136231884 5131.731066666668 C 6116.741236231884 5131.4461666666675 6116.695736231884 5131.1156666666675 6116.695736231884 5130.733666666668 C 6116.689669565218 5126.832903333335 6116.683602898551 5122.932140000001 6116.677536231884 5119.031376666668 C 6116.677536231884 5118.782786666668 6116.695736231884 5118.552376666667 6116.732136231884 5118.343186666668 C 6116.771536231884 5118.118846666668 6116.832136231884 5117.918756666668 6116.914036231884 5117.745946666668 C 6117.001936231884 5117.561013666668 6117.114036231884 5117.397302666668 6117.256536231884 5117.254813666668 C 6117.396036231884 5117.115355666668 6117.559736231884 5117.003183666668 6117.747636231884 5116.918296666668 C 6117.920436231884 5116.8394726666675 6118.117436231884 5116.778838666668 6118.335736231884 5116.739427066668 C 6118.541936231884 5116.703046866668 6118.769236231884 5116.681825066667 6119.017836231884 5116.681825066667 C 6121.791636231884 5116.676772266668 6124.565436231884 5116.671719466668 6127.339236231884 5116.666666666668 C 6127.630236231884 5116.666666666668 6127.887936231884 5116.700015166668 6128.112236231884 5116.763680566668 C 6128.357736231884 5116.836440666668 6128.566936231884 5116.948613666668 6128.736736231884 5117.103229666668 C 6128.737736231884 5117.1042400000015 6128.738736231884 5117.105250333335 6128.739736231884 5117.106260666668 C 6128.906436231884 5117.260876666668 6129.030736231884 5117.436714666668 6129.115636231884 5117.636805666668 C 6129.197536231884 5117.830836666668 6129.239936231884 5118.046086666668 6129.239936231884 5118.285586666668 C 6129.239936231884 5118.525086666667 6129.200536231884 5118.7433666666675 6129.121736231884 5118.940426666668 C 6129.036836231884 5119.146586666668 6128.912536231884 5119.325456666668 6128.745836231884 5119.480066666668 C 6128.736736231884 5119.489166666668 6128.727636231884 5119.495226666668 6128.718536231884 5119.504326666668 C 6128.554836231884 5119.646816666668 6128.354736231884 5119.755956666668 6128.121336231884 5119.825686666668C 6127.897036231884 5119.889346666668 6127.639336231884 5119.925726666668 6127.345236231884 5119.925726666668Z"></path><path fill="#0F40FF" stroke="none" fill-opacity="1" stroke-width="1" stroke-opacity="1" id="tSvg3d29e2061c" d="M 6148.048536231884 5124.283356666668 C 6145.818402898551 5124.2873966666675 6143.588269565217 5124.291436666668 6141.358136231884 5124.295476666668 C 6141.360169565217 5125.296940000001 6141.362202898551 5126.298403333334 6141.364236231884 5127.299866666668 C 6143.407336231884 5127.2958333333345 6145.450436231884 5127.291800000001 6147.493536231884 5127.287766666668 C 6147.775536231884 5127.287766666668 6148.024536231884 5127.318066666668 6148.239536231884 5127.384766666668 C 6148.475536231884 5127.454466666668 6148.676536231884 5127.563666666668 6148.842536231884 5127.715266666668 C 6149.009536231884 5127.863766666668 6149.133536231884 5128.036566666668 6149.215536231884 5128.233666666668 C 6149.294536231884 5128.424666666668 6149.336536231884 5128.639866666668 6149.336536231884 5128.873366666668 C 6149.336536231884 5129.103766666668 6149.297536231884 5129.315966666668 6149.221536231884 5129.506966666668 C 6149.142536231884 5129.703966666668 6149.024536231884 5129.879866666668 6148.864536231884 5130.031466666668 C 6148.86320289855 5130.0324666666675 6148.861869565218 5130.033466666668 6148.860536231884 5130.034466666668 C 6148.697536231884 5130.189066666668 6148.494536231884 5130.304266666668 6148.254536231884 5130.3800666666675 C 6148.036536231884 5130.446766666668 6147.784536231884 5130.483166666668 6147.496536231884 5130.483166666668 C 6145.454436231884 5130.487200000001 6143.412336231884 5130.491233333334 6141.370236231884 5130.495266666668 C 6141.372269565218 5131.698833333335 6141.374302898551 5132.902400000001 6141.376336231884 5134.105966666668 C 6143.68740289855 5134.100933333335 6145.998469565217 5134.095900000001 6148.309536231884 5134.090866666668 C 6148.597536231884 5134.090866666668 6148.854536231884 5134.124166666668 6149.079536231884 5134.193966666668 C 6149.327536231884 5134.269766666668 6149.537536231884 5134.384966666668 6149.7065362318845 5134.539566666668 C 6149.712536231884 5134.545566666668 6149.721536231884 5134.551666666668 6149.727536231884 5134.560766666668 C 6149.891536231884 5134.712366666668 6150.012536231884 5134.8881666666675 6150.094536231884 5135.088266666668 C 6150.179536231884 5135.291366666668 6150.222536231884 5135.515766666668 6150.222536231884 5135.761266666668 C 6150.222536231884 5136.000866666668 6150.179536231884 5136.2190666666675 6150.094536231884 5136.422266666668 C 6150.006536231884 5136.628366666668 6149.879536231884 5136.807266666668 6149.7065362318845 5136.961866666667 C 6149.704536231884 5136.962866666668 6149.702536231884 5136.963866666668 6149.700536231884 5136.964866666668 C 6149.530536231884 5137.119466666668 6149.324536231884 5137.234766666668 6149.082536231884 5137.307466666668 C 6148.857536231884 5137.377166666668 6148.600536231884 5137.413566666668 6148.309536231884 5137.413566666668 C 6145.454836231884 5137.419633333335 6142.600136231884 5137.425700000002 6139.745436231884 5137.4317666666675 C 6139.360436231884 5137.4317666666675 6139.026936231884 5137.389366666668 6138.742036231884 5137.3013666666675 C 6138.429736231884 5137.204366666668 6138.175136231884 5137.058866666668 6137.975036231884 5136.8557666666675 C 6137.778036231884 5136.6556666666675 6137.629436231884 5136.400966666668 6137.532436231884 5136.088766666668 C 6137.444536231884 5135.803766666668 6137.399036231884 5135.473266666668 6137.399036231884 5135.091266666668 C 6137.390969565217 5131.189503333335 6137.382902898551 5127.287740000002 6137.374836231884 5123.385976666668 C 6137.374836231884 5123.1373766666675 6137.393036231884 5122.906966666668 6137.429336231884 5122.6977866666675 C 6137.468736231884 5122.473436666668 6137.529436231884 5122.273346666668 6137.611236231884 5122.100536666668 C 6137.699136231884 5121.915606666668 6137.811336231884 5121.751896666668 6137.953836231884 5121.609406666668 C 6138.093236231884 5121.469946666668 6138.256936231884 5121.357776666668 6138.444936231884 5121.272886666668 C 6138.617736231884 5121.194066666668 6138.814736231884 5121.133436666668 6139.033036231884 5121.094016666668 C 6139.239136231884 5121.057636666668 6139.466536231884 5121.036416666668 6139.715136231884 5121.036416666668 C 6142.488936231884 5121.0303533333345 6145.262736231884 5121.024290000001 6148.036536231884 5121.018226666668 C 6148.327536231884 5121.018226666668 6148.585536231884 5121.051576666668 6148.809536231884 5121.115246666668 C 6149.055536231884 5121.188006666668 6149.264536231884 5121.3001766666675 6149.433536231884 5121.454796666668 C 6149.434536231884 5121.455806666668 6149.435536231884 5121.456816666668 6149.436536231884 5121.457826666668 C 6149.603536231884 5121.612436666668 6149.731536231884 5121.788276666668 6149.812536231884 5121.988366666668 C 6149.894536231884 5122.182396666668 6149.937536231884 5122.397646666668 6149.937536231884 5122.637146666668 C 6149.937536231884 5122.876656666668 6149.897536231884 5123.094936666668 6149.818536231884 5123.291996666668 C 6149.734536231884 5123.498146666668 6149.609536231884 5123.677016666667 6149.443536231884 5123.831636666668 C 6149.433536231884 5123.840726666668 6149.424536231884 5123.846786666668 6149.415536231884 5123.855886666668 C 6149.252536231884 5123.998376666668 6149.051536231884 5124.107516666668 6148.818536231884 5124.177246666668C 6148.603536231884 5124.246976666668 6148.345536231884 5124.280326666668 6148.048536231884 5124.283356666668Z"></path><path fill="#0F40FF" stroke="none" fill-opacity="1" stroke-width="1" stroke-opacity="1" id="tSvg170b3467ed6" d="M 6120.362836231884 5147.998666666668 C 6120.781136231884 5148.2078666666675 6121.420836231884 5148.417066666668 6122.081636231884 5148.417066666668 C 6122.794036231884 5148.417066666668 6123.169936231884 5148.129066666668 6123.169936231884 5147.689466666668 C 6123.169936231884 5147.271066666668 6122.845636231884 5147.0315666666675 6122.021036231884 5146.743566666668 C 6120.884236231884 5146.355566666668 6120.141536231884 5145.740066666668 6120.141536231884 5144.763866666668 C 6120.141536231884 5143.620966666668 6121.117636231884 5142.744766666668 6122.733436231884 5142.744766666668 C 6123.506436231884 5142.744766666668 6124.073336231884 5142.905466666668 6124.482636231884 5143.084366666668 C 6124.367436231884 5143.492633333334 6124.252236231884 5143.9009000000015 6124.137036231884 5144.309166666668 C 6123.861136231884 5144.178766666668 6123.376136231884 5143.990766666668 6122.703136231884 5143.990766666668 C 6122.033136231884 5143.990766666668 6121.705736231884 5144.287966666668 6121.705736231884 5144.636566666668 C 6121.705736231884 5145.064066666668 6122.090736231884 5145.251966666668 6122.975936231884 5145.582466666668 C 6124.185536231884 5146.018966666667 6124.755436231884 5146.637466666668 6124.755436231884 5147.580366666668 C 6124.755436231884 5148.705066666668 6123.870236231884 5149.6691666666675 6121.990736231884 5149.6691666666675 C 6121.208636231884 5149.6691666666675 6120.435536231884 5149.459966666668 6120.050536231884 5149.250766666668C 6120.154636231884 5148.833400000001 6120.258736231884 5148.416033333335 6120.362836231884 5147.998666666668Z"></path><path fill="#0F40FF" stroke="none" fill-opacity="1" stroke-width="1" stroke-opacity="1" id="tSvg12b32c72456" d="M 6127.716836231884 5144.127466666668 C 6127.103469565217 5144.127466666668 6126.4901028985505 5144.127466666668 6125.876736231884 5144.127466666668 C 6125.876736231884 5143.703033333334 6125.876736231884 5143.2786000000015 6125.876736231884 5142.854166666668 C 6127.631969565217 5142.854166666668 6129.387202898551 5142.854166666668 6131.142436231884 5142.854166666668 C 6131.142436231884 5143.2786000000015 6131.142436231884 5143.703033333334 6131.142436231884 5144.127466666668 C 6130.518969565217 5144.127466666668 6129.895502898551 5144.127466666668 6129.272036231884 5144.127466666668 C 6129.272036231884 5145.937400000002 6129.272036231884 5147.747333333335 6129.272036231884 5149.557266666668 C 6128.753636231884 5149.557266666668 6128.235236231884 5149.557266666668 6127.716836231884 5149.557266666668C 6127.716836231884 5147.747333333335 6127.716836231884 5145.937400000002 6127.716836231884 5144.127466666668Z"></path><path fill="#0F40FF" stroke="none" fill-opacity="1" stroke-width="1" stroke-opacity="1" id="tSvg19ec01473a" d="M 6134.108536231884 5142.854166666668 C 6134.108536231884 5144.1406000000015 6134.108536231884 5145.427033333334 6134.108536231884 5146.713466666668 C 6134.108536231884 5147.868566666668 6134.554136231884 5148.453666666668 6135.348436231884 5148.453666666668 C 6136.160836231884 5148.453666666668 6136.609536231884 5147.895866666668 6136.609536231884 5146.713466666668 C 6136.609536231884 5145.427033333334 6136.609536231884 5144.1406000000015 6136.609536231884 5142.854166666668 C 6137.1248695652175 5142.854166666668 6137.64020289855 5142.854166666668 6138.155536231884 5142.854166666668 C 6138.155536231884 5144.107266666668 6138.155536231884 5145.360366666668 6138.155536231884 5146.613466666668 C 6138.155536231884 5148.681066666668 6137.088436231884 5149.666366666668 6135.299936231884 5149.666366666668 C 6133.571936231884 5149.666366666668 6132.556436231884 5148.7325666666675 6132.556436231884 5146.5922666666675 C 6132.556436231884 5145.346233333335 6132.556436231884 5144.100200000001 6132.556436231884 5142.854166666668C 6133.073802898551 5142.854166666668 6133.591169565218 5142.854166666668 6134.108536231884 5142.854166666668Z"></path><path fill="#0F40FF" stroke="none" fill-opacity="1" stroke-width="1" stroke-opacity="1" id="tSvg18dc1f6d81e" d="M 6140.087736231884 5142.854166666668 C 6141.483202898551 5142.854166666668 6142.878669565217 5142.854166666668 6144.274136231884 5142.854166666668 C 6144.274136231884 5143.268500000001 6144.274136231884 5143.682833333334 6144.274136231884 5144.097166666668 C 6143.397036231884 5144.097166666668 6142.519936231884 5144.097166666668 6141.642836231884 5144.097166666668 C 6141.642836231884 5144.607500000001 6141.642836231884 5145.117833333335 6141.642836231884 5145.628166666668 C 6142.462336231884 5145.628166666668 6143.281836231884 5145.628166666668 6144.101336231884 5145.628166666668 C 6144.101336231884 5146.039466666668 6144.101336231884 5146.450766666668 6144.101336231884 5146.8620666666675 C 6143.281836231884 5146.8620666666675 6142.462336231884 5146.8620666666675 6141.642836231884 5146.8620666666675 C 6141.642836231884 5147.7604666666675 6141.642836231884 5148.658866666668 6141.642836231884 5149.557266666668 C 6141.124469565218 5149.557266666668 6140.6061028985505 5149.557266666668 6140.087736231884 5149.557266666668C 6140.087736231884 5147.322900000001 6140.087736231884 5145.088533333334 6140.087736231884 5142.854166666668Z"></path><path fill="#0F40FF" stroke="none" fill-opacity="1" stroke-width="1" stroke-opacity="1" id="tSvge0e013d13d" d="M 6146.042536231884 5142.854166666668 C 6147.438202898551 5142.854166666668 6148.833869565217 5142.854166666668 6150.229536231884 5142.854166666668 C 6150.229536231884 5143.268500000001 6150.229536231884 5143.682833333334 6150.229536231884 5144.097166666668 C 6149.352202898551 5144.097166666668 6148.474869565217 5144.097166666668 6147.597536231884 5144.097166666668 C 6147.597536231884 5144.607500000001 6147.597536231884 5145.117833333335 6147.597536231884 5145.628166666668 C 6148.41720289855 5145.628166666668 6149.236869565218 5145.628166666668 6150.056536231884 5145.628166666668 C 6150.056536231884 5146.039466666668 6150.056536231884 5146.450766666668 6150.056536231884 5146.8620666666675 C 6149.236869565218 5146.8620666666675 6148.41720289855 5146.8620666666675 6147.597536231884 5146.8620666666675 C 6147.597536231884 5147.7604666666675 6147.597536231884 5148.658866666668 6147.597536231884 5149.557266666668 C 6147.079202898551 5149.557266666668 6146.560869565217 5149.557266666668 6146.042536231884 5149.557266666668C 6146.042536231884 5147.322900000001 6146.042536231884 5145.088533333334 6146.042536231884 5142.854166666668Z"></path><path fill="#0F40FF" stroke="none" fill-opacity="1" stroke-width="1" stroke-opacity="1" id="tSvg1218074e8cc" d="M 6088.639236231884 5123.290896666668 C 6088.354236231884 5123.430356666668 6087.714636231884 5123.588006666668 6086.880936231884 5123.588006666668 C 6084.513336231884 5123.588006666668 6083.294736231884 5122.1358266666675 6083.294736231884 5120.225866666668 C 6083.294736231884 5117.936946666668 6084.962036231884 5116.666666666668 6087.035536231884 5116.666666666668 C 6087.838936231884 5116.666666666668 6088.448236231884 5116.824314666668 6088.721036231884 5116.9637716666675 C 6088.615936231884 5117.364963333334 6088.510836231884 5117.766155000001 6088.405736231884 5118.167346666668 C 6088.090536231884 5118.036986666668 6087.653936231884 5117.918756666668 6087.105236231884 5117.918756666668 C 6085.874536231884 5117.918756666668 6084.919636231884 5118.646356666668 6084.919636231884 5120.137946666668 C 6084.919636231884 5121.480986666668 6085.732036231884 5122.326826666668 6087.114336231884 5122.326826666668 C 6087.581236231884 5122.326826666668 6088.099636231884 5122.226776666668 6088.405736231884 5122.108546666668C 6088.483569565217 5122.502663333335 6088.561402898551 5122.896780000001 6088.639236231884 5123.290896666668Z"></path><path fill="#0F40FF" stroke="none" fill-opacity="1" stroke-width="1" stroke-opacity="1" id="tSvge60ede4b43" d="M 6096.218036231884 5120.059996666668 C 6096.218036231884 5122.257966666668 6094.856936231884 5123.5919066666675 6092.853136231884 5123.5919066666675 C 6090.822036231884 5123.5919066666675 6089.630636231884 5122.091226666668 6089.630636231884 5120.181266666668 C 6089.630636231884 5118.171256666667 6090.940236231884 5116.670572916668 6092.965236231884 5116.670572916668C 6095.072136231884 5116.670572916668 6096.218036231884 5118.210666666668 6096.218036231884 5120.059996666668Z M 6091.270636231884 5120.150946666668 C 6091.270636231884 5121.463666666667 6091.901236231884 5122.388336666668 6092.938036231884 5122.388336666668 C 6093.983836231884 5122.388336666668 6094.584036231884 5121.415156666668 6094.584036231884 5120.111536666668 C 6094.584036231884 5118.907956666668 6093.995936231884 5117.874156666668 6092.928936231884 5117.874156666668C 6091.880036231884 5117.871116666668 6091.270636231884 5118.847326666668 6091.270636231884 5120.150946666668Z"></path><path fill="#0F40FF" stroke="none" fill-opacity="1" stroke-width="1" stroke-opacity="1" id="tSvg1163e88959e" d="M 6104.100836231884 5120.059996666668 C 6104.100836231884 5122.257966666668 6102.739736231884 5123.5919066666675 6100.735936231884 5123.5919066666675 C 6098.704836231884 5123.5919066666675 6097.513436231884 5122.091226666668 6097.513436231884 5120.181266666668 C 6097.513436231884 5118.171256666667 6098.823036231884 5116.670572916668 6100.848136231884 5116.670572916668C 6102.951936231884 5116.670572916668 6104.100836231884 5118.210666666668 6104.100836231884 5120.059996666668Z M 6099.150436231884 5120.150946666668 C 6099.150436231884 5121.463666666667 6099.781036231884 5122.388336666668 6100.817736231884 5122.388336666668 C 6101.863636231884 5122.388336666668 6102.463836231884 5121.415156666668 6102.463836231884 5120.111536666668 C 6102.463836231884 5118.907956666668 6101.875736231884 5117.874156666668 6100.808636231884 5117.874156666668C 6099.759836231884 5117.871116666668 6099.150436231884 5118.847326666668 6099.150436231884 5120.150946666668Z"></path><path fill="#0F40FF" stroke="none" fill-opacity="1" stroke-width="1" stroke-opacity="1" id="tSvg4adcbcf9e9" d="M 6105.714636231884 5116.779947666668 C 6106.233002898551 5116.779947666668 6106.751369565217 5116.779947666668 6107.269736231884 5116.779947666668 C 6107.269736231884 5118.589864000001 6107.269736231884 5120.399780333334 6107.269736231884 5122.209696666668 C 6108.177169565217 5122.209696666668 6109.084602898551 5122.209696666668 6109.992036231884 5122.209696666668 C 6109.992036231884 5122.634133333335 6109.992036231884 5123.058570000001 6109.992036231884 5123.483006666668 C 6108.566236231884 5123.483006666668 6107.140436231884 5123.483006666668 6105.714636231884 5123.483006666668C 6105.714636231884 5121.248653666667 6105.714636231884 5119.014300666668 6105.714636231884 5116.779947666668Z"></path><path fill="#0F40FF" stroke="none" fill-opacity="1" stroke-width="1" stroke-opacity="1" clip-rule="evenodd" fill-rule="evenodd" id="tSvg9cd0972397" d="M 6173.743536231884 5125.981166666668 C 6173.731536231884 5126.250986666668 6173.676536231884 5127.175666666668 6173.616536231884 5127.415166666668 C 6173.534536231884 5127.724366666668 6173.686536231884 5127.239366666668 6173.589536231884 5127.493966666668 C 6173.482536231884 5127.775966666668 6173.137536231884 5127.433366666668 6172.679536231884 5127.815366666668 C 6172.227536231884 5128.191266666668 6172.315536231884 5129.006766666668 6172.537536231884 5129.555566666668 C 6172.688536231884 5129.931466666668 6172.873536231884 5130.095166666668 6172.931536231884 5130.340766666668 C 6171.918536231884 5130.980466666668 6170.639536231884 5130.922866666668 6169.860536231884 5129.943566666668 C 6169.505536231884 5129.507066666668 6169.341536231884 5126.693566666668 6169.284536231884 5125.095916666668 C 6169.260536231884 5124.4350066666675 6169.090536231884 5123.561886666668 6169.587536231884 5123.146546666668 C 6170.281536231884 5122.5674966666675 6170.903536231884 5122.428036666668 6171.933536231884 5122.476536666668C 6174.255536231884 5122.585686666668 6173.822536231884 5124.2167266666675 6173.743536231884 5125.981166666668Z M 6174.049536231884 5127.569766666668 C 6174.810536231884 5124.520903333335 6175.571536231884 5121.4720400000015 6176.332536231884 5118.423176666668 C 6176.662536231884 5117.095300666668 6177.857536231884 5116.485931666668 6178.848536231884 5116.7133078666675 C 6179.594536231884 5116.886113666668 6180.227536231884 5117.531862666668 6180.291536231884 5118.705126666668 C 6180.324536231884 5119.287206666668 6180.249536231884 5120.048166666668 6180.012536231884 5121.048616666668 C 6179.173536231884 5124.789716666668 6178.178536231884 5127.839566666667 6178.178536231884 5127.839566666667C 6176.532536231884 5128.045766666668 6175.277536231884 5127.772866666668 6174.049536231884 5127.569766666668Z M 6160.274536231884 5135.731066666668 C 6160.268536231884 5135.685566666668 6160.265536231884 5135.640166666668 6160.262536231884 5135.594666666668 C 6160.235536231884 5134.691166666668 6160.302536231884 5133.778666666668 6160.411536231884 5132.881266666668 C 6160.553536231884 5131.704966666668 6161.093536231884 5130.531766666668 6160.817536231884 5129.413066666668 C 6160.426536231884 5127.830466666668 6159.735536231884 5121.357846666668 6159.850536231884 5119.4660766666675 C 6159.929536231884 5118.317066666668 6160.674536231884 5117.404531666668 6161.602536231884 5117.365120666668 C 6162.878536231884 5117.310549666668 6163.360536231884 5118.332226666668 6163.560536231884 5119.605536666668 C 6163.748536231884 5120.7909266666675 6163.815536231884 5122.497766666668 6163.906536231884 5123.755916666668 C 6163.921536231884 5123.980256666668 6163.830536231884 5124.0105766666675 6163.730536231884 5124.283426666668 C 6163.685536231884 5124.410756666668 6163.639536231884 5124.586596666668 6163.606536231884 5124.780626666668 C 6163.551536231884 5125.117136666668 6163.409536231884 5126.111536666668 6164.006536231884 5125.950856666668 C 6164.382536231884 5125.850806666668 6164.103536231884 5125.195966666668 6164.312536231884 5124.489576666668 C 6164.521536231884 5123.780166666668 6165.276536231884 5123.270846666668 6165.919536231884 5123.034366666668 C 6166.646536231884 5122.782746666668 6167.380536231884 5122.655406666668 6167.905536231884 5122.8736966666675 C 6168.332536231884 5123.049526666668 6168.623536231884 5123.458806666667 6168.659536231884 5124.213696666668 C 6168.702536231884 5125.162616666668 6168.759536231884 5126.0054266666675 6168.817536231884 5126.960366666668 C 6168.859536231884 5127.672866666668 6169.060536231884 5129.112866666668 6169.038536231884 5129.716166666668 C 6169.008536231884 5130.734866666668 6168.196536231884 5131.025866666668 6167.292536231884 5131.001666666668 C 6165.270536231884 5130.944066666668 6166.019536231884 5127.336366666668 6165.291536231884 5126.975566666668 C 6164.870536231884 5126.8845666666675 6164.955536231884 5128.094266666668 6165.204536231884 5129.222066666668 C 6165.507536231884 5130.6075666666675 6165.867536231884 5131.677666666668 6167.553536231884 5131.620066666668 C 6168.399536231884 5131.592866666668 6169.184536231884 5131.138066666668 6169.505536231884 5130.446866666668 C 6170.615536231884 5131.635266666668 6172.176536231884 5131.617066666668 6173.352536231884 5130.7712666666675 C 6174.204536231884 5131.614066666668 6174.550536231884 5131.929366666668 6176.220536231884 5132.499266666668 C 6176.148869565217 5132.600333333335 6176.07720289855 5132.701400000001 6176.005536231884 5132.802466666668 C 6174.607536231884 5132.814566666668 6172.846536231884 5132.866166666668 6171.639536231884 5133.702866666667 C 6169.814536231884 5134.763966666668 6168.244536231884 5136.807366666668 6168.229536231884 5138.9870666666675 C 6168.226536231884 5139.450966666668 6168.662536231884 5139.453966666668 6168.772536231884 5139.2478666666675 C 6168.823536231884 5139.150766666668 6168.817536231884 5138.877966666668 6168.829536231884 5138.732466666668 C 6169.084536231884 5135.261166666668 6172.594536231884 5133.2208666666675 6175.792536231884 5133.372466666668 C 6176.211536231884 5133.393666666668 6176.341536231884 5133.408766666668 6176.556536231884 5133.102566666668 C 6176.693536231884 5132.911566666668 6176.866536231884 5132.644766666668 6177.135536231884 5132.620566666668 C 6177.772536231884 5132.647866666668 6178.196536231884 5132.669066666668 6178.988536231884 5132.393166666668 C 6179.230536231884 5132.308266666668 6180.303536231884 5131.895966666668 6180.288536231884 5131.589766666668 C 6180.121536231884 5131.0531666666675 6179.612536231884 5131.483666666668 6179.348536231884 5131.626166666668 C 6178.578536231884 5132.044566666668 6177.636536231884 5132.156666666668 6176.693536231884 5132.023366666668 C 6175.523536231884 5131.859566666668 6174.371536231884 5131.125966666668 6173.661536231884 5130.249766666668 C 6173.349536231884 5129.8647666666675 6172.609536231884 5128.749066666668 6173.067536231884 5128.300366666668 C 6173.455536231884 5127.921466666668 6174.622536231884 5128.379266666668 6175.420536231884 5128.4398666666675 C 6176.223536231884 5128.500466666668 6177.5145362318835 5128.436866666668 6178.345536231884 5128.361066666668 C 6179.985536231884 5128.215566666668 6180.612536231884 5127.797166666668 6181.598536231884 5128.891566666668 C 6181.949536231884 5129.282666666668 6181.892536231884 5130.531766666668 6181.837536231884 5131.0531666666675 C 6181.091536231884 5138.398966666668 6175.338536231884 5143.204166666668 6167.941536231884 5142.819166666668 C 6167.177536231884 5142.7797666666675 6166.428536231884 5142.685766666668 6165.701536231884 5142.540266666668 C 6165.655536231884 5142.531166666668 6165.613536231884 5142.518966666667 6165.573536231884 5142.5068666666675 C 6165.149536231884 5142.418966666668 6164.746536231884 5142.294666666668 6164.358536231884 5142.133966666668 C 6163.906536231884 5141.949066666668 6163.491536231884 5141.727766666668 6163.115536231884 5141.470066666668 C 6162.736536231884 5141.209366666668 6162.393536231884 5140.909166666668 6162.090536231884 5140.572666666668 C 6161.787536231884 5140.2361666666675 6161.520536231884 5139.866266666668 6161.293536231884 5139.463066666668 C 6161.066536231884 5139.059866666668 6160.875536231884 5138.623266666668 6160.720536231884 5138.156466666668 C 6160.568536231884 5137.6925666666675 6160.453536231884 5137.210566666668 6160.377536231884 5136.710266666668C 6160.323536231884 5136.398066666668 6160.289536231884 5136.070666666668 6160.274536231884 5135.731066666668Z"></path><defs></defs></svg> 